<?xml version="1.0" encoding="utf-8"?>
<!-- Generator: Adobe Illustrator 16.0.0, SVG Export Plug-In . SVG Version: 6.00 Build 0)  -->
<!DOCTYPE svg PUBLIC "-//W3C//DTD SVG 1.1//EN" "http://www.w3.org/Graphics/SVG/1.1/DTD/svg11.dtd">
<svg version="1.1" id="Layer_1" xmlns="http://www.w3.org/2000/svg" xmlns:xlink="http://www.w3.org/1999/xlink" x="0px" y="0px"
	 width="50px" height="50px" viewBox="0 0 50 50" enable-background="new 0 0 50 50" xml:space="preserve">
<g>
	<path d="M38,9.25h-1.124c0.029-0.093,0.058-0.186,0.058-0.289C36.935,8.431,36.504,8,35.973,8c-0.531,0-0.961,0.431-0.961,0.961
		c0,0.103,0.028,0.196,0.058,0.289h-3.68c0.03-0.093,0.058-0.186,0.058-0.289c0-0.531-0.43-0.961-0.961-0.961
		c-0.531,0-0.961,0.431-0.961,0.961c0,0.103,0.029,0.196,0.058,0.289h-3.68c0.029-0.093,0.058-0.186,0.058-0.289
		C25.961,8.431,25.531,8,25,8s-0.961,0.431-0.961,0.961c0,0.103,0.029,0.196,0.058,0.289h-3.68c0.029-0.093,0.058-0.186,0.058-0.289
		C20.475,8.431,20.044,8,19.513,8c-0.531,0-0.961,0.431-0.961,0.961c0,0.103,0.028,0.196,0.058,0.289h-3.68
		c0.03-0.093,0.058-0.186,0.058-0.289c0-0.531-0.43-0.961-0.961-0.961c-0.531,0-0.961,0.431-0.961,0.961
		c0,0.103,0.029,0.196,0.058,0.289H12c-1.517,0-2.75,1.233-2.75,2.75v26c0,1.517,1.233,2.75,2.75,2.75h22.895l5.855-5.856V12
		C40.75,10.483,39.517,9.25,38,9.25z M39.25,34.273l-0.311,0.311h-2.356c-1.1,0-2,0.9-2,2v2.356l-0.31,0.31H12
		c-0.689,0-1.25-0.561-1.25-1.25V17h28.5V34.273z"/>
	<polygon points="14.188,29.127 14.133,27.896 14.023,26.729 14.045,26.729 15.486,31.812 17.29,31.812 18.731,26.729 
		18.753,26.729 18.622,28.16 18.588,29.392 18.588,31.812 20.921,31.812 20.921,23.891 17.785,23.891 16.388,28.831 14.991,23.891 
		11.855,23.891 11.855,31.812 14.188,31.812 	"/>
	<path d="M25.606,32.021c2.343,0,4.159-1.518,4.159-4.213c0-2.09-1.331-4.126-4.159-4.126c-2.464,0-4.147,1.618-4.147,4.104
		C21.458,30.481,23.12,32.021,25.606,32.021z M25.584,25.618c1.144-0.033,1.584,1.111,1.584,2.189c0,1.309-0.44,2.277-1.562,2.277
		c-1.243,0-1.551-1.265-1.551-2.277C24.055,26.806,24.407,25.618,25.584,25.618z"/>
	<polygon points="32.888,29.304 32.789,27.5 35.616,31.812 38.047,31.812 38.047,23.891 35.561,23.891 35.561,26.41 35.66,28.214 
		32.833,23.891 30.401,23.891 30.401,31.812 32.888,31.812 	"/>
</g>
</svg>
